<?xml version="1.0" encoding="UTF-8" standalone="no"?>
<!-- Created with Inkscape (http://www.inkscape.org/) -->

<svg
   xmlns:dc="http://purl.org/dc/elements/1.1/"
   xmlns:cc="http://creativecommons.org/ns#"
   xmlns:rdf="http://www.w3.org/1999/02/22-rdf-syntax-ns#"
   xmlns:svg="http://www.w3.org/2000/svg"
   xmlns="http://www.w3.org/2000/svg"
   xmlns:sodipodi="http://sodipodi.sourceforge.net/DTD/sodipodi-0.dtd"
   xmlns:inkscape="http://www.inkscape.org/namespaces/inkscape"
   width="1024"
   height="1024"
   viewBox="0 0 270.93333 270.93334"
   version="1.1"
   id="svg8"
   inkscape:version="0.92.2 5c3e80d, 2017-08-06"
   sodipodi:docname="lokales.svg"
   inkscape:export-filename="/Users/lkujawia/Desktop/lokales/tlogo.png"
   inkscape:export-xdpi="96"
   inkscape:export-ydpi="96">
  <defs
     id="defs2" />
  <sodipodi:namedview
     id="base"
     pagecolor="#ffffff"
     bordercolor="#666666"
     borderopacity="1.0"
     inkscape:pageopacity="0.0"
     inkscape:pageshadow="2"
     inkscape:zoom="0.64"
     inkscape:cx="343.05787"
     inkscape:cy="518.76321"
     inkscape:document-units="px"
     inkscape:current-layer="layer1"
     showgrid="false"
     inkscape:object-paths="true"
     inkscape:snap-intersection-paths="true"
     showborder="true"
     inkscape:window-width="1620"
     inkscape:window-height="948"
     inkscape:window-x="9"
     inkscape:window-y="0"
     inkscape:window-maximized="0"
     inkscape:snap-nodes="true"
     inkscape:snap-global="false"
     units="px"
     fit-margin-bottom="-1.4"
     inkscape:pagecheckerboard="true">
    <inkscape:grid
       type="xygrid"
       id="grid3699" />
  </sodipodi:namedview>
  <metadata
     id="metadata5">
    <rdf:RDF>
      <cc:Work
         rdf:about="">
        <dc:format>image/svg+xml</dc:format>
        <dc:type
           rdf:resource="http://purl.org/dc/dcmitype/StillImage" />
        <dc:title></dc:title>
      </cc:Work>
    </rdf:RDF>
  </metadata>
  <g
     inkscape:label="Layer 1"
     inkscape:groupmode="layer"
     id="layer1"
     transform="translate(0,-26.06665)">
    <circle
       transform="rotate(90)"
       r="109.5375"
       cy="295.11276"
       cx="-803.57678"
       id="circle1141"
       style="fill:none;stroke:#000000;stroke-width:0.02645833;stroke-miterlimit:4;stroke-dasharray:none;stroke-opacity:1" />
    <ellipse
       transform="rotate(90)"
       ry="68.46093"
       rx="68.460938"
       cy="178.16692"
       cx="-773.67889"
       id="ellipse1143"
       style="fill:none;stroke:#000000;stroke-width:0.02645833;stroke-miterlimit:4;stroke-dasharray:none;stroke-opacity:1" />
    <ellipse
       style="fill:none;stroke:#000000;stroke-width:0.02645833;stroke-miterlimit:4;stroke-dasharray:none;stroke-opacity:1"
       id="ellipse1145"
       cx="-806.75177"
       cy="187.69191"
       rx="41.076557"
       ry="41.076553"
       transform="rotate(90)" />
    <ellipse
       style="fill:none;stroke:#000000;stroke-width:0.02645833;stroke-miterlimit:4;stroke-dasharray:none;stroke-opacity:1"
       id="ellipse1147"
       cx="-814.69458"
       cy="176.39856"
       rx="27.384369"
       ry="27.384377"
       transform="rotate(90)" />
    <rect
       y="-842.30511"
       x="-175.17459"
       height="0.61184895"
       width="0.46302083"
       id="rect1149"
       style="fill:#ffaaaa;stroke-width:0.02645833;stroke-miterlimit:4;stroke-dasharray:none" />
    <rect
       y="-833.93762"
       x="-156.71989"
       height="0.61184895"
       width="0.28111979"
       id="rect1151"
       style="fill:#ffaaaa;stroke-width:0.02645833;stroke-miterlimit:4;stroke-dasharray:none" />
    <g
       id="g6369"
       transform="matrix(1.2492479,0,0,1.4059888,-40.399924,-64.247907)">
      <path
         inkscape:connector-curvature="0"
         id="path1203"
         d="m 136.22333,103.56153 v 0.28784 a 27.384377,27.384369 0 0 0 -1.22421,-0.0615 27.384377,27.384369 0 0 0 -0.32194,0.0114 68.460929,68.460937 0 0 0 -1.44643,-0.0724 68.460929,68.460937 0 0 0 -4.8426,0.17157 68.460929,68.460937 0 0 0 -6.79338,0.82476 68.460929,68.460937 0 0 0 -2.33629,0.52451 109.5375,109.5375 0 0 1 0.9555,2.87528 109.5375,109.5375 0 0 1 1.61695,4.86584 109.5375,109.5375 0 0 1 2.39779,10.68306 109.5375,109.5375 0 0 1 1.31981,10.86964 109.5375,109.5375 0 0 1 0.27389,7.74835 109.5375,109.5375 0 0 1 -0.54674,10.93525 109.5375,109.5375 0 0 1 -0.50333,3.32953 109.5375,109.5375 0 0 1 -1.13326,7.49721 109.5375,109.5375 0 0 1 -2.70888,10.60865 109.5375,109.5375 0 0 1 -1.91151,5.2369 41.076551,41.076557 0 0 0 0.58653,0.0889 41.076551,41.076557 0 0 0 4.10104,0.20516 41.076551,41.076557 0 0 0 2.90525,-0.10282 41.076551,41.076557 0 0 0 4.07623,-0.49506 41.076551,41.076557 0 0 0 4.00596,-0.89919 41.076551,41.076557 0 0 0 3.89692,-1.29447 41.076551,41.076557 0 0 0 3.74758,-1.67743 41.076551,41.076557 0 0 0 3.56154,-2.04277 41.076551,41.076557 0 0 0 3.33984,-2.38847 41.076551,41.076557 0 0 0 3.08457,-2.70992 41.076551,41.076557 0 0 0 2.7988,-3.00395 41.076551,41.076557 0 0 0 2.48512,-3.26906 41.076551,41.076557 0 0 0 2.14612,-3.50004 41.076551,41.076557 0 0 0 1.78594,-3.69745 41.076551,41.076557 0 0 0 1.40766,-3.85715 41.076551,41.076557 0 0 0 1.01596,-3.97804 41.076551,41.076557 0 0 0 0.6134,-4.05971 41.076551,41.076557 0 0 0 0.20515,-4.10104 41.076551,41.076557 0 0 0 -0.10283,-2.90576 41.076551,41.076557 0 0 0 -0.49455,-4.07572 41.076551,41.076557 0 0 0 -0.89917,-4.00648 41.076551,41.076557 0 0 0 -1.29501,-3.89639 41.076551,41.076557 0 0 0 -1.6769,-3.74758 41.076551,41.076557 0 0 0 -0.61081,-1.06506 27.384377,27.384369 0 0 0 -0.29869,-0.66715 27.384377,27.384369 0 0 0 -1.36168,-2.37452 27.384377,27.384369 0 0 0 -1.59215,-2.22674 27.384377,27.384369 0 0 0 -1.49138,-1.69756 v -0.52298 h -0.28112 v 0.20309 a 27.384377,27.384369 0 0 0 -0.0341,-0.0388 27.384377,27.384369 0 0 0 -0.37775,-0.35192 27.384377,27.384369 0 0 0 -1.62522,-1.5141 27.384377,27.384369 0 0 0 -2.1792,-1.65624 27.384377,27.384369 0 0 0 -2.33371,-1.43092 27.384377,27.384369 0 0 0 -2.46444,-1.19063 27.384377,27.384369 0 0 0 -2.57142,-0.93845 27.384377,27.384369 0 0 0 -2.65256,-0.67746 27.384377,27.384369 0 0 0 -2.43447,-0.36793 27.384377,27.384369 0 0 0 -0.27182,-0.0408 27.384377,27.384369 0 0 0 -1.04697,-0.0522 v -0.3111 z"
         style="fill:#4491cc;fill-opacity:1;stroke-width:0.26458332;stroke-miterlimit:4;stroke-dasharray:none" />
      <path
         inkscape:connector-curvature="0"
         style="fill:#ed4a2f;fill-opacity:1;stroke-width:0.26458332;stroke-miterlimit:4;stroke-dasharray:none"
         d="m 69.245593,140.97926 v 0.28784 a 27.384377,27.384369 0 0 0 -1.22421,-0.0615 27.384377,27.384369 0 0 0 -0.32195,0.0114 68.460929,68.460937 0 0 0 -1.44642,-0.0724 68.460929,68.460937 0 0 0 -4.8426,0.17159 68.460929,68.460937 0 0 0 -6.79338,0.82476 68.460929,68.460937 0 0 0 -2.33629,0.52451 109.5375,109.5375 0 0 1 0.95549,2.87528 109.5375,109.5375 0 0 1 1.61696,4.86584 109.5375,109.5375 0 0 1 2.39779,10.68307 109.5375,109.5375 0 0 1 1.31981,10.86963 109.5375,109.5375 0 0 1 0.27389,7.74835 109.5375,109.5375 0 0 1 -0.54674,10.93526 109.5375,109.5375 0 0 1 -0.50333,3.32952 109.5375,109.5375 0 0 1 -1.13326,7.4972 109.5375,109.5375 0 0 1 -2.70888,10.60866 109.5375,109.5375 0 0 1 -1.91151,5.23689 41.076551,41.076557 0 0 0 0.58653,0.0889 41.076551,41.076557 0 0 0 4.10104,0.20516 41.076551,41.076557 0 0 0 2.90525,-0.10282 41.076551,41.076557 0 0 0 4.07623,-0.49506 41.076551,41.076557 0 0 0 4.00596,-0.89919 41.076551,41.076557 0 0 0 3.89692,-1.29447 41.076551,41.076557 0 0 0 3.74757,-1.67744 41.076551,41.076557 0 0 0 3.56154,-2.04276 41.076551,41.076557 0 0 0 3.33985,-2.38848 41.076551,41.076557 0 0 0 3.08457,-2.70991 41.076551,41.076557 0 0 0 2.79879,-3.00395 41.076551,41.076557 0 0 0 2.48512,-3.26906 41.076551,41.076557 0 0 0 2.14613,-3.50004 41.076551,41.076557 0 0 0 1.78593,-3.69745 41.076551,41.076557 0 0 0 1.40767,-3.85714 41.076551,41.076557 0 0 0 1.01596,-3.97804 41.076551,41.076557 0 0 0 0.6134,-4.05971 41.076551,41.076557 0 0 0 0.20515,-4.10105 41.076551,41.076557 0 0 0 -0.10283,-2.90576 41.076551,41.076557 0 0 0 -0.49455,-4.07572 41.076551,41.076557 0 0 0 -0.89917,-4.00648 41.076551,41.076557 0 0 0 -1.29501,-3.89638 41.076551,41.076557 0 0 0 -1.6769,-3.74759 41.076551,41.076557 0 0 0 -0.61081,-1.06505 27.384377,27.384369 0 0 0 -0.29869,-0.66716 27.384377,27.384369 0 0 0 -1.36168,-2.37453 27.384377,27.384369 0 0 0 -1.59215,-2.22673 27.384377,27.384369 0 0 0 -1.49138,-1.69757 v -0.52297 h -0.28112 v 0.20309 a 27.384377,27.384369 0 0 0 -0.0341,-0.0388 27.384377,27.384369 0 0 0 -0.37775,-0.35192 27.384377,27.384369 0 0 0 -1.62523,-1.51411 27.384377,27.384369 0 0 0 -2.17919,-1.65624 27.384377,27.384369 0 0 0 -2.33371,-1.43092 27.384377,27.384369 0 0 0 -2.46445,-1.19062 27.384377,27.384369 0 0 0 -2.57142,-0.93845 27.384377,27.384369 0 0 0 -2.65255,-0.67747 27.384377,27.384369 0 0 0 -2.43447,-0.36793 27.384377,27.384369 0 0 0 -0.27182,-0.0408 27.384377,27.384369 0 0 0 -1.04697,-0.0522 v -0.3111 z"
         id="path1208" />
      <path
         id="path1210"
         d="m 200.95601,130.50229 v 0.28784 a 27.384377,27.384369 0 0 0 -1.22421,-0.0615 27.384377,27.384369 0 0 0 -0.32195,0.0114 68.460929,68.460937 0 0 0 -1.44642,-0.0724 68.460929,68.460937 0 0 0 -4.8426,0.17159 68.460929,68.460937 0 0 0 -6.79338,0.82476 68.460929,68.460937 0 0 0 -2.33629,0.52451 109.5375,109.5375 0 0 1 0.95549,2.87528 109.5375,109.5375 0 0 1 1.61696,4.86584 109.5375,109.5375 0 0 1 2.39779,10.68306 109.5375,109.5375 0 0 1 1.31981,10.86964 109.5375,109.5375 0 0 1 0.27389,7.74835 109.5375,109.5375 0 0 1 -0.54674,10.93526 109.5375,109.5375 0 0 1 -0.50333,3.32952 109.5375,109.5375 0 0 1 -1.13326,7.4972 109.5375,109.5375 0 0 1 -2.70888,10.60866 109.5375,109.5375 0 0 1 -1.91151,5.23689 41.076551,41.076557 0 0 0 0.58653,0.0889 41.076551,41.076557 0 0 0 4.10104,0.20516 41.076551,41.076557 0 0 0 2.90525,-0.10282 41.076551,41.076557 0 0 0 4.07623,-0.49506 41.076551,41.076557 0 0 0 4.00596,-0.89919 41.076551,41.076557 0 0 0 3.89692,-1.29447 41.076551,41.076557 0 0 0 3.74757,-1.67744 41.076551,41.076557 0 0 0 3.56154,-2.04276 41.076551,41.076557 0 0 0 3.33985,-2.38848 41.076551,41.076557 0 0 0 3.08457,-2.70991 41.076551,41.076557 0 0 0 2.79879,-3.00395 41.076551,41.076557 0 0 0 2.48512,-3.26906 41.076551,41.076557 0 0 0 2.14613,-3.50004 41.076551,41.076557 0 0 0 1.78593,-3.69745 41.076551,41.076557 0 0 0 1.40767,-3.85714 41.076551,41.076557 0 0 0 1.01596,-3.97804 41.076551,41.076557 0 0 0 0.6134,-4.05971 41.076551,41.076557 0 0 0 0.20515,-4.10105 41.076551,41.076557 0 0 0 -0.10283,-2.90576 41.076551,41.076557 0 0 0 -0.49455,-4.07572 41.076551,41.076557 0 0 0 -0.89917,-4.00649 41.076551,41.076557 0 0 0 -1.29501,-3.89638 41.076551,41.076557 0 0 0 -1.6769,-3.74759 41.076551,41.076557 0 0 0 -0.61081,-1.06505 27.384377,27.384369 0 0 0 -0.29869,-0.66715 27.384377,27.384369 0 0 0 -1.36168,-2.37453 27.384377,27.384369 0 0 0 -1.59215,-2.22673 27.384377,27.384369 0 0 0 -1.49138,-1.69757 v -0.52297 h -0.28112 v 0.20309 a 27.384377,27.384369 0 0 0 -0.0341,-0.0388 27.384377,27.384369 0 0 0 -0.37775,-0.35192 27.384377,27.384369 0 0 0 -1.62523,-1.51411 27.384377,27.384369 0 0 0 -2.17919,-1.65624 27.384377,27.384369 0 0 0 -2.33371,-1.43092 27.384377,27.384369 0 0 0 -2.46445,-1.19062 27.384377,27.384369 0 0 0 -2.57142,-0.93845 27.384377,27.384369 0 0 0 -2.65255,-0.67747 27.384377,27.384369 0 0 0 -2.43447,-0.36793 27.384377,27.384369 0 0 0 -0.27182,-0.0408 27.384377,27.384369 0 0 0 -1.04697,-0.0522 v -0.3111 z"
         style="fill:#fec13c;fill-opacity:1;stroke-width:0.26458332;stroke-miterlimit:4;stroke-dasharray:none"
         inkscape:connector-curvature="0" />
    </g>
  </g>
</svg>
